PathFileType	4	(X/Y/Z)	/Users/itak/Documents/Research/Walk-IL/dataset/trc/00209_00009.trc
DataRate	CameraRate	NumFrames	NumMarkers	Units	OrigDataRate	OrigDataStartFrame	OrigNumFrames
100.000000	100.000000	4	53	mm	100.000000	0	707
Frame#	Time	RPSI			LPSI			L3			STRN			T10			C7			CLAV			RBAK			LBAK			LSHO			LUPA			LAEL			LAOL			LWTS			LWPS			LFRA			LIFD			LHPS			LHTS			RSHO			RUPA			RAEL			RAOL			RWTS			RWPS			RFRA			RIFD			RHTS			RHPS			RBHD			LFHD			RFHD			LBHD			LHIP			RHIP			RASI			LASI			LKNE			LTHI			LANK			LTIP			LTOE			LMT1			LMT5			LHEE			RKNE			RTHI			RANK			RTIP			RTOE			RMT1			RMT5			RHEE			
		X1	Y1	Z1	X2	Y2	Z2	X3	Y3	Z3	X4	Y4	Z4	X5	Y5	Z5	X6	Y6	Z6	X7	Y7	Z7	X8	Y8	Z8	X9	Y9	Z9	X10	Y10	Z10	X11	Y11	Z11	X12	Y12	Z12	X13	Y13	Z13	X14	Y14	Z14	X15	Y15	Z15	X16	Y16	Z16	X17	Y17	Z17	X18	Y18	Z18	X19	Y19	Z19	X20	Y20	Z20	X21	Y21	Z21	X22	Y22	Z22	X23	Y23	Z23	X24	Y24	Z24	X25	Y25	Z25	X26	Y26	Z26	X27	Y27	Z27	X28	Y28	Z28	X29	Y29	Z29	X30	Y30	Z30	X31	Y31	Z31	X32	Y32	Z32	X33	Y33	Z33	X34	Y34	Z34	X35	Y35	Z35	X36	Y36	Z36	X37	Y37	Z37	X38	Y38	Z38	X39	Y39	Z39	X40	Y40	Z40	X41	Y41	Z41	X42	Y42	Z42	X43	Y43	Z43	X44	Y44	Z44	X45	Y45	Z45	X46	Y46	Z46	X47	Y47	Z47	X48	Y48	Z48	X49	Y49	Z49	X50	Y50	Z50	X51	Y51	Z51	X52	Y52	Z52	X53	Y53	Z53	

1	0	-1352.405395507812	1054.050415039062	-119.6252059936523	-1339.652099609375	1058.05224609375	-238.5586547851562	-1348.522216796875	1128.125122070312	-196.6525115966797	-1113.563842773438	1321.77099609375	-176.7842102050781	-1363.80810546875	1256.775268554688	-190.1209411621094	-1309.21533203125	1519.687133789062	-189.9894409179688	-1142.8896484375	1437.829833984375	-177.4144287109375	-1387.209106445312	1378.796020507812	-124.258430480957	-1320.458374023438	1481.716552734375	-301.41845703125	-1227.940307617188	1485.890014648438	-351.5904541015625	-1246.356811523438	1367.308471679688	-431.0551452636719	-1215.576293945312	1160.23779296875	-464.5946350097656	-1289.069946289062	1137.420532226562	-422.9392700195312	-1111.921142578125	932.2723999023438	-409.5563354492188	-1131.6884765625	915.9036254882812	-489.5901184082031	-1184.663208007812	1055.413818359375	-479.8217468261719	-1077.229858398438	737.4893188476562	-424.7550659179688	-1105.561767578125	829.5831298828125	-487.2391357421875	-1066.811889648438	837.0011596679688	-431.5719909667969	-1262.43994140625	1477.636840820312	-16.52636909484863	-1283.805786132812	1411.136962890625	47.64352035522461	-1285.875610351562	1129.359985351562	87.52858734130859	-1318.195678710938	1122.495849609375	-1.767457008361816	-1142.6142578125	918.2057495117188	39.2152214050293	-1191.8369140625	902.943359375	106.9030227661133	-1255.50244140625	1061.670288085938	99.15850830078125	-1120.28271484375	722.9352416992188	37.75521469116211	-1098.1904296875	798.3895874023438	53.00820159912109	-1147.884155273438	796.8427734375	106.5029830932617	-1293.790771484375	1667.908569335938	-161.5349731445312	-1079.498657226562	1741.648681640625	-190.2856597900391	-1112.602905273438	1740.883422851562	-95.57692718505859	-1209.45068359375	1681.380737304688	-273.3967590332031	-1227.387084960938	992.9274291992188	-368.7583923339844	-1263.663940429688	1012.572082519531	-3.235368013381958	-1165.856567382812	1054.688354492188	-32.09928131103516	-1130.400512695312	1036.429321289062	-313.5856323242188	-1200.746215820312	507.0725402832031	-312.8190612792969	-1199.75048828125	651.7136840820312	-348.5335693359375	-1307.21044921875	41.46283721923828	-296.6587829589844	-1262.2470703125	285.8766784667969	-316.55322265625	-1092.325317382812	45.16053009033203	-242.5242919921875	-1161.19970703125	40.17182159423828	-199.6476287841797	-1179.718994140625	40.89293670654297	-314.9693603515625	-1368.600219726562	51.23358535766602	-243.1019439697266	-1244.289916992188	519.2371215820312	-38.54045486450195	-1212.37841796875	788.4389038085938	8.960176467895508	-1339.264526367188	41.36232757568359	-70.02135467529297	-1245.041259765625	403.0088195800781	-56.3734130859375	-1122.66162109375	48.14729309082031	-78.96218109130859	-1173.865234375	44.44633865356445	-129.3978118896484	-1234.777587890625	41.90531158447266	-25.95942115783691	-1391.723266601562	39.55189514160156	-137.6681518554688	
2	0.01	-1352.447265625	1054.057495117188	-119.6024780273438	-1339.736083984375	1058.072875976562	-238.5517730712891	-1348.594116210938	1128.139770507812	-196.6417846679688	-1113.620239257812	1321.768432617188	-176.7525939941406	-1363.933227539062	1256.789428710938	-190.11328125	-1309.233764648438	1519.709228515625	-189.9249114990234	-1142.926513671875	1437.81640625	-177.3777160644531	-1387.265869140625	1378.810546875	-124.2457809448242	-1320.517822265625	1481.735229492188	-301.3699951171875	-1227.985229492188	1485.901733398438	-351.5426025390625	-1246.422485351562	1367.340087890625	-431.0278015136719	-1215.673217773438	1160.29345703125	-464.6514587402344	-1289.14404296875	1137.456176757812	-422.9675598144531	-1112.07177734375	932.24951171875	-409.7961730957031	-1131.854858398438	915.9636840820312	-489.8450622558594	-1184.807006835938	1055.474975585938	-479.9697265625	-1078.11474609375	737.5269775390625	-425.4585571289062	-1105.7353515625	829.5925903320312	-487.5725708007812	-1066.892944335938	836.9837036132812	-431.8908996582031	-1262.45947265625	1477.629028320312	-16.51026344299316	-1283.841064453125	1411.114868164062	47.66349411010742	-1286.011840820312	1129.3369140625	87.45649719238281	-1318.387451171875	1122.5029296875	-1.835744023323059	-1142.729614257812	918.1627807617188	39.00495910644531	-1191.97900390625	902.8558349609375	106.7138519287109	-1255.682495117188	1061.593627929688	99.04386901855469	-1120.496215820312	722.9007568359375	37.39242553710938	-1098.463989257812	798.1919555664062	52.69566345214844	-1147.95263671875	796.7588500976562	106.2051391601562	-1293.752197265625	1667.966674804688	-161.4098510742188	-1079.496215820312	1741.60302734375	-190.2580261230469	-1112.42626953125	1740.765625	-95.48278045654297	-1209.442260742188	1681.44873046875	-273.26025390625	-1227.475830078125	992.9434204101562	-368.7801208496094	-1263.713500976562	1012.572631835938	-3.250849008560181	-1165.892700195312	1054.689331054688	-32.10513687133789	-1130.464233398438	1036.447998046875	-313.614013671875	-1200.90283203125	507.0924682617188	-312.8767395019531	-1199.875122070312	651.7335205078125	-348.570068359375	-1307.224975585938	41.46017837524414	-296.6655883789062	-1262.3173828125	285.8841247558594	-316.5779724121094	-1092.330688476562	45.16334915161133	-242.5259094238281	-1161.205322265625	40.17855834960938	-199.6506958007812	-1179.732177734375	40.89424896240234	-314.9766845703125	-1368.596435546875	51.20695495605469	-243.1085357666016	-1244.303100585938	519.228515625	-38.54682922363281	-1212.413940429688	788.4471435546875	8.937297821044922	-1339.265991210938	41.36852264404297	-70.028076171875	-1245.051635742188	403.0079650878906	-56.37717819213867	-1122.666381835938	48.15526962280273	-78.96243286132812	-1173.8603515625	44.4423828125	-129.4015502929688	-1234.778076171875	41.90633010864258	-25.95949935913086	-1391.7236328125	39.5511474609375	-137.6700134277344	
3	0.02	-1352.498779296875	1054.066528320312	-119.5697326660156	-1339.840209960938	1058.097290039062	-238.5390777587891	-1348.689331054688	1128.15869140625	-196.6264190673828	-1113.70703125	1321.7568359375	-176.7101898193359	-1364.083984375	1256.808471679688	-190.1023712158203	-1309.255981445312	1519.7373046875	-189.8423919677734	-1142.970703125	1437.799682617188	-177.3298645019531	-1387.339111328125	1378.828125	-124.2294006347656	-1320.59326171875	1481.75927734375	-301.3084106445312	-1228.0380859375	1485.91943359375	-351.48095703125	-1246.50537109375	1367.384033203125	-430.9942016601562	-1215.790283203125	1160.365600585938	-464.7232971191406	-1289.2373046875	1137.505249023438	-423.0081176757812	-1112.233520507812	932.2311401367188	-410.1040954589844	-1132.062377929688	916.04150390625	-490.1705932617188	-1184.96875	1055.55517578125	-480.1524963378906	-1079.11328125	737.5736083984375	-426.2951965332031	-1105.97412109375	829.6196899414062	-487.9985961914062	-1067.03076171875	836.9583740234375	-432.3169250488281	-1262.509033203125	1477.62109375	-16.46865081787109	-1283.888427734375	1411.08203125	47.69144439697266	-1286.174194335938	1129.300659179688	87.35863494873047	-1318.624877929688	1122.509765625	-1.926074743270874	-1142.887817382812	918.1064453125	38.73310470581055	-1192.15869140625	902.7449951171875	106.4689178466797	-1255.900634765625	1061.506225585938	98.90396881103516	-1120.763671875	722.8614501953125	36.93688583374023	-1098.793212890625	797.974609375	52.30058288574219	-1148.06494140625	796.6470947265625	105.8263397216797	-1293.7041015625	1668.041015625	-161.2563934326172	-1079.46875	1741.532958984375	-190.2090148925781	-1112.223999023438	1740.623046875	-95.37171173095703	-1209.436157226562	1681.523071289062	-273.1016540527344	-1227.585571289062	992.9614868164062	-368.8014831542969	-1263.77783203125	1012.573120117188	-3.268103122711182	-1165.937622070312	1054.6884765625	-32.11196136474609	-1130.5478515625	1036.470458984375	-313.6500244140625	-1201.083251953125	507.1133728027344	-312.940185546875	-1199.993408203125	651.7506103515625	-348.5928955078125	-1307.239868164062	41.45549011230469	-296.6735229492188	-1262.399658203125	285.8911743164062	-316.6042175292969	-1092.337280273438	45.16665649414062	-242.5281219482422	-1161.211791992188	40.18570709228516	-199.6545104980469	-1179.748291015625	40.8973274230957	-314.9857177734375	-1368.596557617188	51.18234252929688	-243.1151885986328	-1244.32568359375	519.2189331054688	-38.55193710327148	-1212.456298828125	788.461181640625	8.907362937927246	-1339.267944335938	41.37458419799805	-70.03343200683594	-1245.069946289062	403.0066223144531	-56.3828239440918	-1122.670288085938	48.16369247436523	-78.9639892578125	-1173.856323242188	44.43852996826172	-129.4043273925781	-1234.778686523438	41.90816879272461	-25.95969200134277	-1391.72265625	39.54892730712891	-137.6712188720703	
4	0.03	-1352.558837890625	1054.0771484375	-119.5269241333008	-1339.959838867188	1058.123657226562	-238.5190734863281	-1348.805541992188	1128.180908203125	-196.6061553955078	-1113.825317382812	1321.734741210938	-176.6580963134766	-1364.25048828125	1256.832275390625	-190.0875396728516	-1309.280883789062	1519.770385742188	-189.7446746826172	-1143.019897460938	1437.77978515625	-177.2718811035156	-1387.426391601562	1378.84765625	-124.2093048095703	-1320.681640625	1481.788208007812	-301.2359924316406	-1228.095336914062	1485.94384765625	-351.4071350097656	-1246.601196289062	1367.4404296875	-430.9563293457031	-1215.920288085938	1160.453125	-464.8079528808594	-1289.346435546875	1137.567626953125	-423.0618591308594	-1112.392700195312	932.22216796875	-410.4721069335938	-1132.304443359375	916.135009765625	-490.5570983886719	-1185.134765625	1055.652709960938	-480.3616943359375	-1080.11767578125	737.6229248046875	-427.2042541503906	-1106.27197265625	829.66845703125	-488.5037841796875	-1067.226684570312	836.9287719726562	-432.8399658203125	-1262.595336914062	1477.613037109375	-16.39505386352539	-1283.947875976562	1411.037109375	47.72745895385742	-1286.351196289062	1129.249145507812	87.23571014404297	-1318.895385742188	1122.514892578125	-2.036862850189209	-1143.092163085938	918.0360107421875	38.40750885009766	-1192.3701171875	902.6150512695312	106.1745147705078	-1256.141723632812	1061.414672851562	98.74518585205078	-1121.080932617188	722.8156127929688	36.41106033325195	-1099.158935546875	797.7535400390625	51.83839416503906	-1148.23291015625	796.5084228515625	105.3820419311523	-1293.649047851562	1668.128540039062	-161.0829010009766	-1079.4111328125	1741.436279296875	-190.1374206542969	-1112.013427734375	1740.464233398438	-95.25124359130859	-1209.433837890625	1681.596069335938	-272.9335021972656	-1227.712158203125	992.9803466796875	-368.8198547363281	-1263.855224609375	1012.573425292969	-3.284823894500732	-1165.989868164062	1054.685180664062	-32.11916351318359	-1130.648193359375	1036.495971679688	-313.6920166015625	-1201.275512695312	507.1330871582031	-313.0037536621094	-1200.084106445312	651.7605590820312	-348.5917053222656	-1307.253173828125	41.44778823852539	-296.6819458007812	-1262.4892578125	285.8971862792969	-316.62939453125	-1092.3447265625	45.17024993896484	-242.5309753417969	-1161.21875	40.19245147705078	-199.6586608886719	-1179.766357421875	40.90238952636719	-314.9959106445312	-1368.601684570312	51.16237640380859	-243.1211090087891	-1244.358764648438	519.208984375	-38.5547981262207	-1212.502685546875	788.4819946289062	8.871026039123535	-1339.270874023438	41.3793830871582	-70.03636932373047	-1245.097290039062	403.0047607421875	-56.39033889770508	-1122.673950195312	48.17181015014648	-78.96737670898438	-1173.854125976562	44.4355583190918	-129.4056701660156	-1234.779052734375	41.91075897216797	-25.96014404296875	-1391.72021484375	39.54528045654297	-137.6715087890625	
